<svg viewBox="0 0 790.23 293.89" xmlns="http://www.w3.org/2000/svg" xmlns:xlink="http://www.w3.org/1999/xlink" id="Layer_1" overflow="hidden"><defs></defs><rect x="0" y="0" rx="32.07" ry="32.07" width="790.23" height="293.89" fill="#E4872D"/><path d="M0 223.31 790.23 223.31 790.23 264.1C790.23 280.54 776.88 293.89 760.44 293.89L29.79 293.89C13.35 293.89 0 280.54 0 264.1L0 223.31 0 223.31Z" fill="#FFFFFF"/><rect x="96.17" y="93.29" rx="23.06" ry="23.06" width="290.15" height="106.98" fill="#16AF97"/><rect x="400.73" y="93.29" rx="23.06" ry="23.06" width="290.15" height="106.98" fill="#C9D72E"/><text fill="#FFFFFF" font-family="Arial-BoldMT,Arial" font-weight="700" font-size="28.91" transform="translate(252.1 53.47)"><tspan x="0" y="0">Manajemen Bencana</tspan></text><text fill="#FFFFFF" font-family="Arial-BoldMT,Arial" font-weight="700" font-size="14.1" transform="translate(106.04 74.86)"><tspan x="0" y="0">Situasi Serius dan Mendesak Membutuhkan Respons Cepat di Luar Kebiasaan Normal</tspan></text><text fill="#007376" font-family="ArialMT,Arial" font-size="14.1" transform="translate(236.04 251.83)"><tspan x="0" y="0">Menyelamatkan nyawa, mencegah kedisabilitasan,</tspan><tspan x="-20.39" y="14.41">memastikan pelayanan kesehatan esensial tetap berjalan</tspan></text><text fill="#FFFFFF" font-family="Arial-BoldMT,Arial" font-weight="700" font-size="28.91" transform="translate(135.21 152.67)"><tspan x="0" y="0">Respons Medis</tspan></text><text fill="#FFFFFF" font-family="Arial-BoldMT,Arial" font-weight="700" font-size="28.91" transform="translate(484.75 129.61)"><tspan x="0" y="0">Respons</tspan><tspan x="-12.06" y="23.06">Kesehatan</tspan><tspan x="-17.71" y="46.11">Masyarakat</tspan></text></svg>