<svg viewBox="0 0 790.23 293.89" xmlns="http://www.w3.org/2000/svg" xmlns:xlink="http://www.w3.org/1999/xlink" id="Layer_1" overflow="hidden"><defs></defs><rect x="0" y="0" rx="32.07" ry="32.07" width="790.23" height="293.89" fill="#C9D72E"/><circle cx="305.4" cy="162.44" r="60.87" fill="#FFFFFF"/><circle cx="126.06" cy="162.46" r="60.87" fill="#FFFFFF"/><circle cx="664.19" cy="162.46" r="60.87" fill="#FFFFFF"/><circle cx="484.81" cy="162.46" r="60.87" fill="#FFFFFF"/><text fill="#007376" font-family="ArialMT,Arial" font-size="28.91" transform="translate(192.65 53.47)"><tspan x="0" y="0">Rapid Health</tspan><tspan letter-spacing="-0.06em" x="167.15" y="0"> </tspan><tspan letter-spacing="0em" x="173.59" y="0">Assesment (RHA)</tspan></text><text fill="#16AF97" font-family="Arial-BoldMT,Arial" font-weight="700" font-size="14.1" transform="translate(622.28 241.78)"><tspan x="0" y="0">Peningkatan</tspan><tspan x="-9.4" y="14.41">Jumlah Korban</tspan></text><text fill="#16AF97" font-family="Arial-BoldMT,Arial" font-weight="700" font-size="14.1" transform="translate(427.61 241.78)"><tspan x="0" y="0">Dampak Masalah</tspan><tspan x="-18.81" y="14.41">Kesehatan Masyarakat</tspan></text><text fill="#16AF97" font-family="Arial-BoldMT,Arial" font-weight="700" font-size="14.1" transform="translate(46.13 241.78)"><tspan x="0" y="0">Keterbatasan Kapasitas</tspan><tspan x="10.58" y="14.41">Kesehatan Setempat</tspan></text><text fill="#16AF97" font-family="Arial-BoldMT,Arial" font-weight="700" font-size="14.1" transform="translate(234.89 241.78)"><tspan letter-spacing="-0.07em" x="0" y="0">T</tspan><tspan letter-spacing="0em" x="7.56" y="0">erganggunya</tspan><tspan letter-spacing="-0.04em" x="96.08" y="0"> </tspan><tspan letter-spacing="0em" x="99.48" y="0">Akses</tspan><tspan x="-1.97" y="14.41">Pelayanan Kesehatan</tspan></text><g id="OWPAt1"><g><path d="M688.05 144.25C687.89 144.1 687.78 143.89 687.51 143.86L687.51 144.52C687.51 144.52 664.55 167.38 664.55 167.38L663.96 167.24 651.73 155.07 639.35 167.33 639.07 167.37C638.62 166.93 635.41 164.02 635.36 163.76 635.32 163.57 635.34 163.39 635.39 163.2L651.65 147.01 664.46 159.32 682.55 141.14C683.07 140.89 683.3 140.24 683.93 140.27L681.76 137.87 682.01 137.65 693.01 134.84 690.21 145.86C690.06 146.05 690.04 146.06 689.82 145.95 689.46 145.76 688.42 144.61 688.03 144.25Z" fill="#007376"/><path d="M689.68 155.18 689.68 183.19 689.45 183.42 681.85 183.42C681.85 183.42 681.58 183.18 681.54 183.11L681.49 155.44C681.61 155.1 681.83 155.06 682.15 155.01 683.62 154.81 687.29 154.89 688.84 155.01 689.14 155.03 689.4 155.1 689.69 155.17Z" fill="#007376"/><path d="M649.49 163.64C649.73 163.36 649.99 163.29 650.34 163.25 651.8 163.08 655.21 163.11 656.71 163.25 657.04 163.28 657.56 163.31 657.69 163.67L657.64 183.12C657.61 183.19 657.36 183.43 657.33 183.43L649.73 183.43 649.5 183.2 649.5 163.65Z" fill="#007376"/><path d="M671.14 165.74 678.74 165.74 678.98 166.28C678.74 171.64 679.23 177.06 679.07 182.4 679.07 182.72 678.99 183.23 678.74 183.43L671.14 183.43C671.14 183.43 670.87 183.19 670.83 183.12L670.83 166.05 671.14 165.74Z" fill="#007376"/><path d="M638.94 183.43C638.99 183.28 638.78 183.09 638.78 183.04L638.78 169.54 639.01 169.31 646.61 169.31C646.61 169.31 646.88 169.55 646.92 169.62L646.92 183.12C646.89 183.19 646.64 183.43 646.61 183.43L638.93 183.43Z" fill="#007376"/><path d="M660.46 171.66C662.75 171.81 665.5 171.37 667.74 171.63 668.39 171.7 668.39 172.09 668.44 172.64 668.66 175.1 668.66 179.97 668.44 182.43 668.41 182.71 668.39 183.2 668.12 183.36 667.8 183.55 661.49 183.53 660.74 183.44 660.09 183.37 660.09 182.98 660.04 182.43 659.82 179.97 659.82 175.1 660.04 172.64 660.07 172.31 660.1 171.79 660.46 171.66Z" fill="#007376"/></g></g><g id="FLOiQQ.tif"><g><path d="M99.88 153.16C100.38 148.97 103.62 144.4 107.18 142.25 113.6 138.38 120.64 139.72 126.19 144.39 137.43 133.85 155.31 143.72 151.87 159 151.73 159.63 151.03 161.78 150.69 162.2L150.22 162.86C149.64 162.14 148.25 161 148.25 161 148.25 161 149.26 157.58 149.35 156.78 150.47 146.31 138.9 139.15 130.06 145.05 128.93 145.81 127.59 147.55 126.2 147.61 124.6 147.68 123.47 145.96 122.27 145.17 110.28 137.27 96.98 151.58 105.41 162.93L125.79 183.37C126.01 183.56 126.14 183.49 126.37 183.37 127.52 182.78 130.33 179.4 131.19 178.55L133.36 180.73 126.19 187.85 104.38 166.3C102.26 163.83 100.24 160.56 99.87 157.26 99.76 156.28 99.75 154.15 99.87 153.18Z" stroke="#007376" stroke-width="4.32" stroke-miterlimit="10" fill="#007376"/><path d="M140.9 162.27C153.05 161.48 153.61 180.12 141.68 180.29 130.23 180.45 129.37 163.02 140.9 162.27ZM140.86 164.58C140.56 164.67 140.4 164.88 140.22 165.11 139.61 165.89 139.6 171.34 139.8 172.52 140.05 174.02 141.71 174.85 142.71 173.72 143.45 172.89 143.46 167.39 143.26 166.14 143.06 164.89 142.14 164.18 140.86 164.57ZM142.63 175.39C140.74 173.49 138.55 177.81 141.39 177.97 143.04 178.06 143.52 176.29 142.63 175.39Z" fill="#007376"/></g></g><g id="ojV78Q.tif"><path d="M486.77 134.12 491.08 134.84C502.04 137.3 510.6 146.27 512.6 157.33 512.79 158.37 512.85 159.42 513.08 160.45 513.01 161.79 513.18 163.22 513.08 164.54 511.42 186.86 485.19 198.66 467.43 184.83 447.04 168.95 456.97 136.13 482.57 134.12L486.77 134.12ZM492.58 141.65 476.97 141.65 476.97 154.62 463.87 154.62 463.87 170.24 476.97 170.24 476.97 183.34 492.58 183.34 492.58 170.24 505.68 170.24 505.68 154.62 492.58 154.62 492.58 141.65Z" fill="#007376"/></g><g id="h75CEG.tif"><path d="M304.41 131.67 306.12 131.62C329.39 132.25 343.82 157.85 331.66 178.08 319.47 198.36 289.55 197.61 278.38 176.76 267.64 156.71 281.83 132.43 304.41 131.66ZM318.97 143.61C309.33 136.81 295.97 138.15 288.14 147.04 280.97 155.18 280.53 167.03 286.71 175.87L318.97 143.61ZM324.33 149.36 292.62 181.38C303.38 188.73 318.14 185.4 324.95 174.42 329.68 166.8 329.64 156.65 324.32 149.36Z" fill="#007376"/></g><text></text></svg>